
<svg xmlns="http://www.w3.org/2000/svg" width="20.06" height="20" viewBox="0 0 20.06 20">
  <metadata><?xpacket begin="﻿" id="W5M0MpCehiHzreSzNTczkc9d"?>
<x:xmpmeta xmlns:x="adobe:ns:meta/" x:xmptk="Adobe XMP Core 5.6-c138 79.159824, 2016/09/14-01:09:01        ">
   <rdf:RDF xmlns:rdf="http://www.w3.org/1999/02/22-rdf-syntax-ns#">
      <rdf:Description rdf:about=""/>
   </rdf:RDF>
</x:xmpmeta>
                                                                                                    
                                                                                                    
                                                                                                    
                                                                                                    
                                                                                                    
                                                                                                    
                                                                                                    
                                                                                                    
                                                                                                    
                                                                                                    
                                                                                                    
                                                                                                    
                                                                                                    
                                                                                                    
                                                                                                    
                                                                                                    
                                                                                                    
                                                                                                    
                                                                                                    
                                                                                                    
                           
<?xpacket end="w"?></metadata>
<defs>
    <style>
      .cls-1 {
        fill-rule: evenodd;
      }
    </style>
  </defs>
  <path id="tag" class="cls-1" d="M1041.14,1338.01a0.471,0.471,0,0,1-.33-0.14l-8.69-8.67a0.471,0.471,0,0,1-.14-0.33,0.437,0.437,0,0,1,.14-0.33l10.43-10.42a0.449,0.449,0,0,1,.38-0.13l7.82,0.86a0.449,0.449,0,0,1,.41.41l0.86,7.82a0.449,0.449,0,0,1-.13.38l-10.42,10.41A0.489,0.489,0,0,1,1041.14,1338.01Zm-8.03-9.14,8.03,8.01,9.93-9.92-0.8-7.22-7.22-.8Zm13.27-3.34a1.9,1.9,0,1,1,0-3.8A1.9,1.9,0,0,1,1046.38,1325.53Zm0-2.87a0.97,0.97,0,0,0,0,1.94,0.922,0.922,0,0,0,.68-0.29,0.942,0.942,0,0,0,0-1.36A0.922,0.922,0,0,0,1046.38,1322.66Z" transform="translate(-1031.97 -1318)"/>
</svg>
