
<svg xmlns="http://www.w3.org/2000/svg" width="21" height="15" viewBox="0 0 21 15">
  <defs>
    <style>
      .cls-1 {
        fill: none;
        stroke: #282827;
        stroke-width: 1px;
        fill-rule: evenodd;
      }
    </style>
  </defs>
  <path id="BestRate" class="cls-1" d="M1052.96,1309.73a2.26,2.26,0,0,1-.01.26V1310h-19.96v-0.01a2.26,2.26,0,0,1-.01-0.26s-0.04-1.55,1.94-1.5h16.1C1053,1308.18,1052.96,1309.73,1052.96,1309.73Zm-2.03-4.31a7.586,7.586,0,0,0-3.87-5.84,8.705,8.705,0,0,0-3.34-1.15v-0.92a5.3,5.3,0,0,0,.69-0.01,1.081,1.081,0,0,0,.5-0.15,0.7,0.7,0,0,0,.28-0.82,0.742,0.742,0,0,0-.68-0.52c-0.7-.01-1.4,0-2.1,0-0.36,0-.72-0.01-1.08.01a0.709,0.709,0,0,0-.69.71,0.753,0.753,0,0,0,.79.78c0.25,0.01.49,0,.72,0v0.91a8.535,8.535,0,0,0-3.98,1.57,7.548,7.548,0,0,0-3.24,5.43,0.954,0.954,0,0,0-.71.92h0a0.958,0.958,0,0,0,.96.95h15.51a0.958,0.958,0,0,0,.96-0.95h0A0.946,0.946,0,0,0,1050.93,1305.42Z" transform="translate(-1032.5 -1295.5)"/>
</svg>
