<svg xmlns="http://www.w3.org/2000/svg" width="28.03" height="21.03" viewBox="0 0 28.03 21.03">
  <defs>
    <style>
      .cls-1 {
        fill: #282827;
        fill-rule: evenodd;
      }
    </style>
  </defs>
  <path id="Breakfast" class="cls-1" d="M1053.15,1262.22a3.951,3.951,0,0,0,3.86-3.91c0-2.21-1-2.61-3.09-2.62h-13.31v3.83a14.509,14.509,0,0,0-4.16.19,1.726,1.726,0,0,0-1.11.82,2.553,2.553,0,0,0-.33,1.73,1.426,1.426,0,0,0-.5-0.09,1.47,1.47,0,0,0-.58.12,13.185,13.185,0,0,0-1.95,1.07,1.059,1.059,0,0,0-.12.1,0.076,0.076,0,0,0-.05.02c-1.83,1.14-3.27,5.54-2.71,6.56a0.651,0.651,0,0,0,.59.35,0.866,0.866,0,0,0,.32-0.06,30.828,30.828,0,0,1,4.44-1.16c0.06,0.07.12,0.14,0.18,0.2a1.471,1.471,0,0,0,1.12.45,1.148,1.148,0,0,0,.19-0.01l0.95-.08,0.22-.03a2.5,2.5,0,0,1,.06.38,1.1,1.1,0,0,0,1.07.92h1.9a1.1,1.1,0,0,0,1.07-.92c0.01-.13.03-0.26,0.05-0.38a0.908,0.908,0,0,0,.23.03c0.31,0.03.63,0.05,0.94,0.09h0.19a1.478,1.478,0,0,0,1.13-.45c0.06-.07.11-0.13,0.18-0.2a30.828,30.828,0,0,1,4.44,1.16,0.866,0.866,0,0,0,.32.06,0.651,0.651,0,0,0,.59-0.35c0.36-.65-0.1-2.67-0.95-4.34h3.55a0.467,0.467,0,0,0,.47-0.46,0.459,0.459,0,0,0-.47-0.45h-1.22A6.543,6.543,0,0,0,1053.15,1262.22Zm2.93-3.91a3.017,3.017,0,0,1-2.52,2.96,6.208,6.208,0,0,0,.36-2.09v-2.58C1055.8,1256.61,1056.08,1256.83,1056.08,1258.31Zm-26.2,11.09a9.549,9.549,0,0,1,1.42-4.05,1.91,1.91,0,0,0,.36.71,29.947,29.947,0,0,0,2.04,2.32,35.822,35.822,0,0,0-3.82,1.02h0Zm7.02-.59a0.454,0.454,0,0,1-.08.02c-0.32.02-.64,0.04-0.97,0.08a0.666,0.666,0,0,1-.51-0.12c-0.22-.26-0.49-0.54-0.8-0.86-0.57-.59-1.27-1.33-2.16-2.44a1.042,1.042,0,0,1-.2-0.78,0.92,0.92,0,0,1,.34-0.61,9.976,9.976,0,0,1,1.79-.97,0.351,0.351,0,0,1,.2-0.05,1.206,1.206,0,0,1,.96.95c0.01,0.02.01,0.03,0.02,0.05,0.01,0.04.02,0.09,0.03,0.13,0.05,0.16.09,0.31,0.14,0.47,0.02,0.05.03,0.11,0.05,0.17,0.04,0.13.08,0.28,0.12,0.4a0.737,0.737,0,0,1,.04.14c0.05,0.17.1,0.33,0.14,0.49l0.05,0.12a2.8,2.8,0,0,0,.09.31c0.03,0.09.05,0.17,0.07,0.25a0.539,0.539,0,0,1,.03.1c0.07,0.21.14,0.42,0.19,0.61,0.1,0.32.18,0.59,0.26,0.85S1036.84,1268.6,1036.9,1268.81Zm3.24,1.28h-1.9a0.14,0.14,0,0,1-.14-0.12,9.812,9.812,0,0,0-.28-1.33v-0.01c-0.02-.05-0.03-0.11-0.05-0.16s-0.03-.1-0.05-0.16c-0.02-.09-0.04-0.18-0.07-0.28a1.037,1.037,0,0,1-.04-0.1c-0.08-.28-0.17-0.58-0.28-0.93-0.06-.19-0.12-0.4-0.19-0.62a0.257,0.257,0,0,0-.02-0.05l-0.08-.29-0.09-.27a0.88,0.88,0,0,0-.05-0.15c-0.04-.16-0.09-0.32-0.14-0.5a0.188,0.188,0,0,1-.02-0.08c-0.05-.16-0.1-0.33-0.15-0.5a0.637,0.637,0,0,1-.02-0.07c-0.18-.61-0.38-1.3-0.59-2.08a1.825,1.825,0,0,1,.15-1.39,0.893,0.893,0,0,1,.51-0.4,13.667,13.667,0,0,1,5.1,0,0.864,0.864,0,0,1,.5.4,1.823,1.823,0,0,1,.16,1.41c-0.14.51-.27,0.97-0.4,1.41-0.01.05-.03,0.1-0.04,0.15-0.05.16-.09,0.31-0.14,0.46-0.01.05-.03,0.11-0.04,0.15-0.05.16-.1,0.31-0.14,0.46a0.309,0.309,0,0,1-.02.08c-0.1.35-.2,0.68-0.29,0.98-0.02.04-.02,0.07-0.04,0.11-0.03.1-.06,0.21-0.1,0.31a0.737,0.737,0,0,1-.04.14c-0.01.05-.03,0.1-0.04,0.15a1.389,1.389,0,0,1-.06.19c-0.05.15-.09,0.29-0.14,0.44-0.14.44-.25,0.83-0.34,1.17a0.037,0.037,0,0,0-.01.03h0a8.74,8.74,0,0,0-.28,1.33A0.14,0.14,0,0,1,1040.14,1270.09Zm2.48-1.17c-0.03,0-.06-0.01-0.09-0.01-0.33-.04-0.65-0.06-0.97-0.08-0.04-.01-0.06-0.01-0.09-0.02a0.293,0.293,0,0,0,.03-0.1c0.02-.07.04-0.13,0.06-0.21a0.88,0.88,0,0,1,.05-0.15c0.02-.07.04-0.15,0.06-0.22s0.05-.16.07-0.23l0.06-.18c0.04-.14.09-0.29,0.14-0.45,0.02-.08.05-0.16,0.07-0.23,0.01-.04.02-0.07,0.03-0.11,0.02-.06.03-0.11,0.05-0.16,0.03-.1.06-0.19,0.09-0.28a0.658,0.658,0,0,1,.04-0.15c0.04-.12.07-0.25,0.12-0.39a0.185,0.185,0,0,1,.02-0.07c0.05-.15.1-0.31,0.14-0.48a1.209,1.209,0,0,0,.05-0.18c0.04-.11.07-0.22,0.11-0.34,0.02-.08.05-0.16,0.07-0.25s0.05-.2.08-0.3a2.628,2.628,0,0,0,.09-0.3v-0.01a1.221,1.221,0,0,1,.96-0.94,0.364,0.364,0,0,1,.21.05,10.955,10.955,0,0,1,1.78.97,0.894,0.894,0,0,1,.35.61,1.073,1.073,0,0,1-.21.79,31.219,31.219,0,0,1-2.16,2.43c-0.3.32-.57,0.59-0.79,0.85a0.566,0.566,0,0,1-.42.14h0Zm5.88,0.48a36,36,0,0,0-3.83-1.02c0.55-.58,1.23-1.29,2.04-2.31a1.669,1.669,0,0,0,.28-0.46,0.618,0.618,0,0,0,.27.09h0.03a9.551,9.551,0,0,1,1.21,3.7h0Zm-0.72-4.65a4.563,4.563,0,0,0-1.21-1.27,0.142,0.142,0,0,0-.06-0.02,1.059,1.059,0,0,0-.12-0.1,11.807,11.807,0,0,0-1.94-1.07,1.448,1.448,0,0,0-.59-0.12,1.413,1.413,0,0,0-.49.09,2.672,2.672,0,0,0-.33-1.73,1.745,1.745,0,0,0-1.12-.82c-0.12-.02-0.24-0.04-0.37-0.06-0.01-.15-0.02-0.31-0.02-0.47v-2.58h11.46v2.58a5.631,5.631,0,0,1-5.21,5.57h0Zm-3.32-10.55a0.46,0.46,0,0,0,.33.13,0.507,0.507,0,0,0,.33-0.13c1.16-1.15,1.05-1.58,1.02-1.73a1.384,1.384,0,0,0-.64-0.69c-0.06-.04-0.15-0.11-0.21-0.16a5.046,5.046,0,0,1,.71-0.89,0.447,0.447,0,0,0,0-.64,0.48,0.48,0,0,0-.66.01h0c-1.13,1.15-1.03,1.57-1,1.72a1.366,1.366,0,0,0,.62.7,1.122,1.122,0,0,1,.22.16,4.382,4.382,0,0,1-.73.88,0.456,0.456,0,0,0,.01.64h0Zm2.33,0a0.422,0.422,0,0,0,.32.13,0.507,0.507,0,0,0,.33-0.13c1.16-1.15,1.05-1.58,1.02-1.73a1.364,1.364,0,0,0-.63-0.69c-0.06-.04-0.15-0.11-0.22-0.16a5.608,5.608,0,0,1,.72-0.89,0.447,0.447,0,0,0-.01-0.64,0.468,0.468,0,0,0-.65.01h-0.01c-1.13,1.15-1.03,1.57-.99,1.72a1.288,1.288,0,0,0,.62.7,1.526,1.526,0,0,1,.22.16,5.1,5.1,0,0,1-.73.88,0.447,0.447,0,0,0,0,.64h0.01Zm2.32,0a0.422,0.422,0,0,0,.32.13,0.467,0.467,0,0,0,.34-0.13c1.15-1.15,1.04-1.58,1.01-1.73a1.364,1.364,0,0,0-.63-0.69c-0.06-.04-0.15-0.11-0.22-0.16a5.608,5.608,0,0,1,.72-0.89,0.438,0.438,0,0,0-.01-0.64,0.481,0.481,0,0,0-.66.01h0c-1.13,1.15-1.03,1.57-.99,1.72a1.323,1.323,0,0,0,.62.7,1.526,1.526,0,0,1,.22.16,5.1,5.1,0,0,1-.73.88,0.447,0.447,0,0,0,.01.64h0Z" transform="translate(-1028.97 -1249.97)"/>
</svg>
