<svg xmlns="http://www.w3.org/2000/svg" width="125" height="74.97" viewBox="0 0 125 74.97">
  <metadata><?xpacket begin="﻿" id="W5M0MpCehiHzreSzNTczkc9d"?>
<x:xmpmeta xmlns:x="adobe:ns:meta/" x:xmptk="Adobe XMP Core 5.6-c138 79.159824, 2016/09/14-01:09:01        ">
   <rdf:RDF xmlns:rdf="http://www.w3.org/1999/02/22-rdf-syntax-ns#">
      <rdf:Description rdf:about=""/>
   </rdf:RDF>
</x:xmpmeta>
                                                                                                    
                                                                                                    
                                                                                                    
                                                                                                    
                                                                                                    
                                                                                                    
                                                                                                    
                                                                                                    
                                                                                                    
                                                                                                    
                                                                                                    
                                                                                                    
                                                                                                    
                                                                                                    
                                                                                                    
                                                                                                    
                                                                                                    
                                                                                                    
                                                                                                    
                                                                                                    
                           
<?xpacket end="w"?></metadata>
<defs>
    <style>
      .cls-1 {
        fill: #0f1114;
        fill-rule: evenodd;
      }
    </style>
  </defs>
  <path id="TA_Logo" class="cls-1" d="M589.264,1616.2a5.212,5.212,0,1,1-5.068,5.21A5.139,5.139,0,0,1,589.264,1616.2Zm62.6-.1a5.212,5.212,0,1,1-5.069,5.21A5.139,5.139,0,0,1,651.861,1616.1ZM590,1605.88a15.536,15.536,0,1,0,15.107,15.53h0A15.321,15.321,0,0,0,590,1605.88Zm0,26.31a10.784,10.784,0,1,1,10.481-10.78h0A10.636,10.636,0,0,1,590,1632.19ZM684,1589.94H663.228A73.383,73.383,0,0,0,621.5,1578a76.754,76.754,0,0,0-42.716,11.94H559a30.159,30.159,0,0,1,6.2,12.95c-9.718,14.56-6.114,34.47,8.049,44.46a30.507,30.507,0,0,0,41.162-5.5,81.055,81.055,0,0,1,6.939,10.12s4.478-6.88,6.988-10.12a30.511,30.511,0,0,0,43.862,3.36,32.612,32.612,0,0,0,5.349-42.32A30.029,30.029,0,0,1,684,1589.94Zm-93.5,57.32c-13.834,0-25.049-11.53-25.049-25.75s11.215-25.75,25.049-25.75,25.048,11.53,25.048,25.75h0c0,14.22-11.214,25.75-25.048,25.75h0Zm0-57.77a77.813,77.813,0,0,1,31-6.13,72.993,72.993,0,0,1,30.166,6.18c-16.791.52-30.147,14.65-30.166,31.92,0-17.66-13.925-31.97-31.1-31.97h0.1Zm62.153,57.77c-13.834,0-25.048-11.53-25.048-25.75s11.214-25.75,25.048-25.75,25.048,11.53,25.048,25.75h0C677.7,1635.73,666.482,1647.26,652.648,1647.26Zm0-41.43a15.536,15.536,0,1,0,15.108,15.53h0a15.326,15.326,0,0,0-15.059-15.58h-0.1Zm0,26.31a10.784,10.784,0,1,1,10.482-10.78h0a10.639,10.639,0,0,1-10.531,10.73h0Z" transform="translate(-559 -1578)"/>
</svg>
